<svg width="345" height="61" viewBox="0 0 345 61" fill="none" xmlns="http://www.w3.org/2000/svg">
<g clip-path="url(#clip0_128_105)">
<path d="M83.9785 58.5776C91.3374 58.0075 93.5017 56.1547 93.5017 49.1711V11.9725C93.5017 4.98881 91.4817 2.99348 83.9785 2.56591V1.2832H134.192V18.8136H132.893C131.595 8.40937 126.833 3.13601 115.723 3.13601H107.787V29.7879H111.105C120.628 29.7879 124.524 26.2248 125.534 18.8136H126.833V42.7575H125.534C124.669 35.2038 120.628 31.7832 111.105 31.7832H107.787V49.0285C107.787 56.0122 110.239 57.865 118.608 58.4351V59.7178H83.9785V58.5776Z" fill="#353949"/>
<path d="M135.492 39.906C135.492 27.364 144.583 18.9551 156.992 18.9551C169.401 18.9551 178.491 27.364 178.491 39.906C178.491 52.4481 169.401 60.857 156.992 60.857C144.583 60.857 135.492 52.5906 135.492 39.906ZM165.216 39.906C165.216 27.5065 162.042 21.0929 156.992 21.0929C151.941 21.0929 148.767 27.5065 148.767 39.906C148.767 52.3055 151.941 58.7191 156.992 58.7191C162.042 58.7191 165.216 52.3055 165.216 39.906Z" fill="#353949"/>
<path d="M189.021 31.4991C189.021 27.5085 187.29 25.7982 181.951 25.7982V24.658L200.853 19.3847H201.142V34.4921H201.575C204.028 24.373 207.635 19.0996 213.407 19.0996C214.29 19.1024 215.167 19.2468 216.004 19.5272V30.5015C214.58 29.944 213.063 29.6539 211.531 29.6463C207.491 29.6463 203.451 31.6417 201.142 37.7702V51.88C201.142 56.8683 203.162 58.151 207.779 58.5786V59.8613H182.673V58.5786C187.579 58.0085 189.021 56.8683 189.021 51.88V31.4991Z" fill="#353949"/>
<path d="M224.668 49.5973V22.0903H217.453V21.8053L236.355 8.12305H236.644V20.2375H249.341V22.0903H236.788V51.1651C236.788 54.8707 239.241 56.2959 242.271 56.2959C244.724 56.2903 247.126 55.5985 249.197 54.3006L249.919 55.1558C246.423 58.7222 241.666 60.8159 236.644 60.9992C230.295 60.9992 224.668 58.0062 224.668 49.5973Z" fill="#353949"/>
<path d="M257.271 31.4991C257.271 27.5085 255.54 25.7982 250.201 25.7982V24.658L269.103 19.3847H269.392V34.4921H269.825C272.278 24.373 275.885 19.0996 281.657 19.0996C282.54 19.1024 283.417 19.2468 284.254 19.5272V30.5015C282.83 29.944 281.313 29.6539 279.781 29.6463C275.741 29.6463 271.701 31.6417 269.392 37.7702V51.88C269.392 56.8683 271.412 58.151 276.029 58.5786V59.8613H250.923V58.5786C255.829 58.0085 257.271 56.8683 257.271 51.88V31.4991Z" fill="#353949"/>
<path d="M305.609 51.736C305.609 56.8668 306.907 58.007 311.525 58.5771V59.8598H287.139V58.5771C292.045 58.007 293.488 56.8668 293.488 51.736V31.3551C293.488 27.507 291.757 25.6542 286.418 25.6542V24.514L305.32 19.2407H305.609V51.736ZM292.623 6.84112C292.623 5.02674 293.352 3.28668 294.651 2.00372C295.95 0.720759 297.712 0 299.548 0C301.377 0.0257826 303.124 0.754819 304.417 2.03223C305.71 3.30964 306.448 5.03477 306.474 6.84112C306.448 8.64747 305.71 10.3726 304.417 11.65C303.124 12.9274 301.377 13.6565 299.548 13.6822C298.636 13.6937 297.73 13.5246 296.884 13.1849C296.039 12.8452 295.271 12.3417 294.625 11.7041C293.98 11.0666 293.47 10.3078 293.126 9.47263C292.782 8.63744 292.611 7.74269 292.623 6.84112Z" fill="#353949"/>
<path d="M316.433 57.7219V46.4625H317.732C320.329 55.299 323.936 58.7195 329.131 58.7195C332.594 58.7195 335.768 56.8667 335.768 53.5887C335.768 51.1658 334.614 49.7406 330.429 47.7452L324.946 44.8948C318.742 41.7593 316.145 37.7686 316.145 32.4952C316.145 24.9415 322.638 18.9555 332.161 18.9555C335.971 18.9344 339.748 19.6611 343.271 21.0934V32.3527H341.973C340.385 24.799 336.778 21.3784 331.295 21.3784C327.544 21.3784 324.802 23.5163 324.802 26.6518C324.802 28.7896 325.956 30.6424 330.574 32.9228L335.768 35.3457C342.117 38.3387 345.003 41.7593 345.003 47.3177C345.003 55.299 338.077 60.9999 328.698 60.9999C324.398 60.9271 320.184 59.8007 316.433 57.7219Z" fill="#353949"/>
<path d="M7.07081 1.28374H57.2841C59.1581 1.28751 60.9542 2.02449 62.2793 3.33336C63.6044 4.64223 64.3506 6.41636 64.3544 8.26739C64.3506 10.1184 63.6044 11.8925 62.2793 13.2014C60.9542 14.5103 59.1581 15.2473 57.2841 15.251H7.07081C5.19683 15.2473 3.40069 14.5103 2.07559 13.2014C0.750481 11.8925 0.00435623 10.1184 0.000543442 8.26739C-0.01108 7.3471 0.163859 6.43382 0.515058 5.58134C0.866256 4.72885 1.38661 3.95441 2.04548 3.30362C2.70434 2.65283 3.48839 2.13885 4.35144 1.79195C5.2145 1.44506 6.13911 1.27226 7.07081 1.28374Z" fill="#E8675A"/>
<path d="M7.07026 45.8926H25.1066C26.9806 45.8963 28.7768 46.6333 30.1019 47.9422C31.427 49.2511 32.1731 51.0252 32.1769 52.8762C32.1731 54.7272 31.427 56.5014 30.1019 57.8102C28.7768 59.1191 26.9806 59.8561 25.1066 59.8599H7.07026C5.19628 59.8561 3.40015 59.1191 2.07504 57.8102C0.749938 56.5014 0.00381279 54.7272 0 52.8762H0C0.00381279 51.0252 0.749938 49.2511 2.07504 47.9422C3.40015 46.6333 5.19628 45.8963 7.07026 45.8926Z" fill="#E8675A"/>
<path d="M7.07026 23.5156H43.2873C45.1613 23.5194 46.9574 24.2564 48.2825 25.5652C49.6077 26.8741 50.3538 28.6482 50.3576 30.4993C50.3538 32.3503 49.6077 34.1244 48.2825 35.4333C46.9574 36.7422 45.1613 37.4791 43.2873 37.4829H7.07026C5.19628 37.4791 3.40015 36.7422 2.07504 35.4333C0.749938 34.1244 0.00381279 32.3503 0 30.4993H0C0.00381279 28.6482 0.749938 26.8741 2.07504 25.5652C3.40015 24.2564 5.19628 23.5194 7.07026 23.5156Z" fill="#E8675A"/>
</g>
<defs>
<clipPath id="clip0_128_105">
<rect width="345" height="61" fill="white"/>
</clipPath>
</defs>
</svg>
