<svg width="399" height="65" viewBox="0 0 399 65" fill="none" xmlns="http://www.w3.org/2000/svg">
<path d="M14.2399 20.0156C12.8859 21.4074 11.7167 22.9661 10.7609 24.6537L9.2829 23.8958C9.17725 23.4389 8.90751 23.0361 8.52436 22.7632C8.14121 22.4903 7.67107 22.3661 7.20232 22.4139C6.15634 22.527 5.40595 23.4999 5.55375 24.5519C5.58744 24.85 5.69242 25.1357 5.85988 25.3851C6.02733 25.6345 6.25239 25.8404 6.51623 25.9855C6.78007 26.1306 7.07501 26.2108 7.37636 26.2192C7.6777 26.2276 7.9767 26.164 8.2483 26.0339L9.68083 26.8031C8.88498 28.5792 8.31651 30.4231 7.99817 32.3462L10.363 32.7874C11.0972 28.6219 13.0648 24.7695 16.0136 21.7238L14.2399 20.0156Z" fill="#0F2A47"/>
<path d="M31.5642 12.6969L29.9498 12.7309L29.7338 10.7285C30.3022 10.2647 30.6661 9.49553 30.5637 8.66972C30.4391 8.12361 30.1153 7.64289 29.6551 7.32057C29.1948 6.99824 28.6307 6.85717 28.072 6.92473C27.5133 6.99228 26.9996 7.26361 26.6303 7.68623C26.261 8.10886 26.0624 8.65277 26.0728 9.2127C26.1751 10.0046 26.6754 10.6946 27.3576 10.9888L27.585 12.9798C25.3111 13.3418 23.1509 14.0318 21.0703 15.0499L22.1163 17.2219C26.5047 15.1128 31.48 14.5389 36.237 15.5929L36.7487 13.2399C35.0433 12.8779 33.3379 12.6969 31.5642 12.6969Z" fill="#0F2A47"/>
<path d="M52.4166 20.785C52.6677 20.7529 52.9099 20.6718 53.1294 20.5463C53.3489 20.4207 53.5413 20.2534 53.6955 20.0536C53.8498 19.8539 53.9628 19.6258 54.0282 19.3824C54.0936 19.1391 54.11 18.8853 54.0765 18.6356C54.0469 18.3874 53.9684 18.1474 53.8455 17.9294C53.7225 17.7115 53.5576 17.5198 53.3601 17.3653C53.1626 17.2109 52.9365 17.0967 52.6946 17.0293C52.4527 16.9619 52.1998 16.9427 51.9504 16.9727C50.984 17.0858 50.2677 17.9569 50.2677 18.8958L48.9375 20.0609C47.6027 18.6781 46.1065 17.459 44.4807 16.4297L43.2188 18.4659C46.7692 20.7223 49.579 23.9624 51.3023 27.7874L53.4966 26.8032C52.7088 25.0448 51.7085 23.3885 50.5179 21.871L51.7685 20.7397C52.03 20.8189 52.2005 20.8189 52.4166 20.785Z" fill="#0F2A47"/>
<path d="M29.8509 45.1848C28.623 45.264 27.4064 45.2979 26.1786 45.2979C23.4158 45.2979 20.7213 45.117 18.3451 44.7211C16.9806 44.5092 15.6349 44.1915 14.3203 43.7708C16.2095 47.1369 19.065 49.8658 22.5214 51.6084C25.9778 53.351 29.8781 54.0282 33.7234 53.5533C37.5686 53.0783 41.1842 51.4729 44.1075 48.9424C47.0308 46.4118 49.129 43.0712 50.1338 39.3477C47.7138 40.8825 45.0984 42.0885 42.3572 42.9337C38.3064 44.2312 34.1014 44.992 29.8509 45.1962V45.1848Z" fill="#0F2A47"/>
<path d="M50.6195 34.056C50.6877 34.6669 50.7673 35.289 50.7673 35.8999C46.4128 39.7461 38.7953 42.2575 29.6998 42.8005C21.3547 43.3095 14.9197 42.0086 12.805 40.4701C12.2194 37.6949 12.2639 34.8247 12.9352 32.0688C13.6065 29.3129 14.8877 26.7409 16.6852 24.5404C18.4828 22.3399 20.7514 20.5665 23.3256 19.3495C25.8997 18.1325 28.7145 17.5026 31.5644 17.5059C41.2284 17.5172 49.437 24.6327 50.6195 34.056ZM30.598 32.393C30.598 29.1577 28.0058 26.5105 24.7769 26.5105C24.0065 26.5165 23.2448 26.6733 22.5353 26.9722C21.8258 27.271 21.1824 27.706 20.6419 28.2522C20.1013 28.7985 19.6742 29.4452 19.3849 30.1557C19.0956 30.8662 18.9498 31.6265 18.9558 32.393C18.9558 35.6171 21.5367 38.2642 24.7769 38.2642C26.331 38.2463 27.8149 37.6179 28.9053 36.516C29.9957 35.4141 30.6041 33.9281 30.598 32.3817V32.393ZM44.0139 31.0355C44.0139 29.9013 43.5634 28.813 42.7606 28.0078C41.9577 27.2026 40.8675 26.7458 39.7276 26.7368C38.5897 26.7487 37.5024 27.2068 36.702 28.0117C35.9016 28.8166 35.4527 29.9032 35.4527 31.0355C35.4467 32.1717 35.8929 33.2641 36.694 34.0739C37.4951 34.8836 38.5857 35.3449 39.7276 35.3569C42.1038 35.3569 44.0025 33.4338 44.0025 31.0468L44.0139 31.0355Z" fill="#0F2A47"/>
<path d="M228.529 31.6318L226.277 33.996C225.497 33.1802 224.559 32.53 223.52 32.0848C222.48 31.6396 221.361 31.4085 220.229 31.4055C215.761 31.4055 212.384 34.9124 212.384 39.7201C212.384 44.5619 215.761 48.0348 220.229 48.0348C222.651 48.0348 224.788 46.9375 226.346 45.4103L228.529 47.8086C227.494 48.9513 226.221 49.8567 224.8 50.4622C223.379 51.0677 221.843 51.3588 220.297 51.3154C213.476 51.3154 208.803 46.3153 208.803 39.6862C208.803 33.0798 213.476 28.091 220.286 28.091C221.833 28.0687 223.368 28.3728 224.788 28.9831C226.209 29.5933 227.484 30.496 228.529 31.6318Z" fill="#0F2A47"/>
<path d="M253.223 39.7164C253.223 46.3454 248.22 51.3456 241.512 51.3456C234.804 51.3456 229.836 46.3454 229.836 39.7164C229.836 33.1099 234.838 28.1211 241.512 28.1211C248.186 28.1211 253.223 33.1099 253.223 39.7164ZM233.429 39.7164C233.429 44.5581 236.908 48.0197 241.546 48.0197C246.151 48.0197 249.664 44.5241 249.664 39.7164C249.664 34.8973 246.151 31.4017 241.546 31.4017C236.908 31.4357 233.429 34.9086 233.429 39.7164Z" fill="#0F2A47"/>
<path d="M292.958 37.0606V50.907H289.468V38.2258C289.468 33.9949 287.114 31.4836 283.056 31.4836C279.326 31.4836 276.234 34.0628 276.234 38.3276V50.907H272.755V38.2258C272.755 33.9949 270.401 31.4836 266.343 31.4836C262.602 31.4836 259.521 34.0628 259.521 38.3276V50.907H256.008V28.5649H259.487V31.7324C261.306 29.074 264.239 28.0898 266.957 28.0898C270.833 28.0898 273.846 29.8772 275.302 32.7958C277.075 29.3342 280.554 28.0898 283.669 28.0898C289.184 28.1238 292.958 31.6646 292.958 37.0606Z" fill="#0F2A47"/>
<path d="M319.414 39.7164C319.414 46.4246 314.559 51.3456 308.317 51.3456C304.657 51.3456 301.973 49.841 300.245 47.5898V60.305H296.721V28.5623H300.245V31.8768C301.973 29.6143 304.657 28.1211 308.317 28.1211C314.559 28.1211 319.414 33.042 319.414 39.7164ZM300.018 39.7164C300.018 44.4563 303.281 48.0197 307.92 48.0197C312.672 48.0197 315.867 44.3092 315.867 39.7164C315.867 35.1235 312.638 31.4017 307.92 31.4017C303.281 31.4357 300.018 35.0104 300.018 39.7164Z" fill="#0F2A47"/>
<path d="M344.408 50.9047H340.929V47.5902C339.155 49.8866 336.472 51.3459 332.811 51.3459C326.57 51.3459 321.715 46.425 321.715 39.7167C321.715 33.0084 326.57 28.1214 332.811 28.1214C334.366 28.0664 335.912 28.3781 337.323 29.0308C338.734 29.6835 339.969 30.6588 340.929 31.8772V28.5626H344.408V50.9047ZM325.273 39.7054C325.273 44.3435 328.491 48.0201 333.209 48.0201C337.814 48.0201 341.111 44.4566 341.111 39.7167C341.111 35.0107 337.848 31.436 333.209 31.436C328.457 31.436 325.273 35.1238 325.273 39.7167V39.7054Z" fill="#0F2A47"/>
<path d="M368.656 37.0606V50.907H365.177V38.2258C365.177 33.9949 362.823 31.4836 358.764 31.4836C355.024 31.4836 351.943 34.0628 351.943 38.3276V50.907H348.43V28.5649H351.909V31.7324C353.728 29.074 356.661 28.0898 359.378 28.0898C364.892 28.1238 368.656 31.6646 368.656 37.0606Z" fill="#0F2A47"/>
<path d="M374.683 60.4223H370.806L379.072 46.0555L368.885 28.5664H372.796L381.061 42.5599L388.906 28.5664H392.738L374.683 60.4223Z" fill="#0F2A47"/>
<path d="M83.17 23.1035C81.7963 22.4947 80.2924 22.2343 78.7928 22.3456C77.0533 22.5718 76.1096 23.4316 76.1096 25.5244V28.2733H83.2041V33.7372H76.1096V51.0566H69.9702V33.7372H65.6953V28.2733H69.9588V25.4565C69.9588 20.1057 72.8239 16.6328 78.1447 16.6328C80.1685 16.6328 81.8284 17.0287 83.2041 17.6057L83.17 23.1035Z" fill="#0F2A47"/>
<path d="M98.0966 33.671C97.5281 33.5578 96.9824 33.5239 96.4366 33.5239C93.5829 33.5239 91.6274 35.2547 91.6274 38.6597V51.0582H85.4766V28.2749H91.4114V30.7637C92.8553 28.6369 95.0268 27.6641 97.8123 27.6641C99.1198 27.6641 100.484 28.06 101.28 28.7501L98.0966 33.671Z" fill="#0F2A47"/>
<path d="M122.459 39.6302C122.459 40.3089 122.414 41.18 122.346 41.6891H106.178C106.826 44.981 109.134 46.4289 112.034 46.4289C114.023 46.4289 116.161 45.6371 117.787 44.2569L121.368 48.205C118.764 50.5806 115.479 51.6666 111.67 51.6666C104.689 51.6666 99.8457 46.938 99.8457 39.7433C99.8457 32.5825 104.553 27.6955 111.386 27.6955C117.934 27.6616 122.459 32.5373 122.459 39.6302ZM106.213 37.5373H116.309C115.729 34.5961 113.989 32.9785 111.351 32.9785C108.452 32.9785 106.758 34.7092 106.213 37.5373Z" fill="#0F2A47"/>
<path d="M146.77 39.6302C146.77 40.3089 146.724 41.18 146.656 41.6891H130.489C131.137 44.981 133.445 46.4289 136.344 46.4289C138.334 46.4289 140.471 45.6371 142.097 44.2569L145.678 48.205C143.075 50.5806 139.789 51.6666 135.98 51.6666C129 51.6666 124.156 46.938 124.156 39.7433C124.156 32.5825 128.863 27.6955 135.696 27.6955C142.29 27.6616 146.77 32.5373 146.77 39.6302ZM130.523 37.5373H140.619C140.039 34.5961 138.3 32.9785 135.662 32.9785C132.763 32.9785 131.069 34.7092 130.523 37.5373Z" fill="#0F2A47"/>
<path d="M173.285 39.6656C173.285 46.4983 168.544 51.6681 162.257 51.6681C160.985 51.7223 159.717 51.4831 158.553 50.9689C157.39 50.4547 156.361 49.6796 155.549 48.7043V60.4919H149.443V28.3079H155.446V30.8419C156.253 29.8271 157.29 29.0164 158.471 28.4758C159.653 27.9352 160.946 27.68 162.245 27.731C168.544 27.6631 173.274 32.8216 173.274 39.6656H173.285ZM155.264 39.6656C155.264 43.2404 157.652 45.9553 161.131 45.9553C164.747 45.9553 167.02 43.1725 167.02 39.6656C167.02 36.1588 164.781 33.3759 161.131 33.3759C157.618 33.3759 155.264 36.0909 155.264 39.6656Z" fill="#0F2A47"/>
<path d="M179.209 16.879C178.692 16.8774 178.179 16.9786 177.701 17.1766C177.224 17.3745 176.791 17.6654 176.428 18.032C176.064 18.3987 175.778 18.8337 175.586 19.3117C175.394 19.7897 175.3 20.3011 175.309 20.8158C175.3 21.3304 175.395 21.8416 175.588 22.3191C175.781 22.7966 176.068 23.2307 176.433 23.5957C176.798 23.9607 177.232 24.2492 177.711 24.444C178.19 24.6388 178.703 24.736 179.22 24.7298C179.739 24.739 180.255 24.6441 180.737 24.4507C181.218 24.2572 181.655 23.9692 182.022 23.6039C182.39 23.2386 182.679 22.8034 182.873 22.3244C183.068 21.8454 183.163 21.3323 183.154 20.8158C183.16 20.299 183.063 19.7862 182.867 19.3074C182.672 18.8285 182.383 18.3931 182.017 18.0267C181.651 17.6602 181.215 17.3699 180.735 17.1729C180.254 16.9759 179.74 16.8759 179.22 16.879H179.209ZM182.324 28.2706H176.185V51.0539H182.324V28.2706Z" fill="#0F2A47"/>
<path d="M192.556 36.4062L201.163 28.2725H208.689L197.627 38.9741L208.723 51.0219H201.163L192.522 41.8022V51.0219H186.371V17.209H192.511V36.4062H192.556Z" fill="#0F2A47"/>
</svg>
