<svg id="Layer_1" data-name="Layer 1" xmlns="http://www.w3.org/2000/svg" viewBox="0 0 147.67 55.17"><defs><style>.cls-1{fill:#fff;}.cls-2{fill:#0069a7;}.cls-3{fill:#52575a;}</style></defs><path class="cls-1" d="M44.3,28.41a17.88,17.88,0,1,1-17.87-17.7A17.79,17.79,0,0,1,44.3,28.41"/><path class="cls-2" d="M41.55,19a17.81,17.81,0,0,0-3-3.61,45.48,45.48,0,0,0-24.17,0,17.81,17.81,0,0,0-3,3.61,63.42,63.42,0,0,1,30.25,0"/><path class="cls-2" d="M28.62,21.49c1.11-1.61,1.9-2.71,2.31-3.26a61.79,61.79,0,0,0-20.28,1.86,16.77,16.77,0,0,0-1.2,2.78,101.54,101.54,0,0,1,19.17-1.38"/><path class="cls-2" d="M25.88,35.35c-.7,1-1.56,2.21-2.4,3.35a61.65,61.65,0,0,0,18.72-2A16.77,16.77,0,0,0,43.4,34a99.22,99.22,0,0,1-17,1.41h-.55"/><path class="cls-2" d="M28,22.4A100.33,100.33,0,0,0,9.15,23.86a18.12,18.12,0,0,0-.47,2.44c5.34-.33,11.18-.5,17.05-.51.84-1.28,1.6-2.41,2.27-3.39"/><path class="cls-2" d="M22.83,39.57c-1,1.35-1.89,2.52-2.37,3.13a45.59,45.59,0,0,0,18-1.25,17.81,17.81,0,0,0,3-3.61,62.11,62.11,0,0,1-15.12,1.84c-1.2,0-2.4,0-3.6-.11"/><path class="cls-2" d="M36.77,14a18,18,0,0,0-20.69,0,46.32,46.32,0,0,1,20.69,0"/><path class="cls-2" d="M29.39,30.1c5.13-.05,10.2-.22,14.87-.51,0-.39,0-.78,0-1.18s0-.79,0-1.18c-4-.25-8.36-.41-12.76-.48-.69,1.1-1.32,2.11-2.11,3.35"/><path class="cls-2" d="M32.07,25.84c4.18.07,8.27.23,12.1.46a17.83,17.83,0,0,0-.47-2.44,92.3,92.3,0,0,0-9.57-1.19c-.84,1.26-1.49,2.27-2.06,3.17"/><path class="cls-2" d="M25.13,26.71c-3.43,0-6.84.08-10.15.2.34.67,1,1.92,1.59,3.05,2.09.06,4.21.11,6.35.13.65-1,1.38-2.11,2.21-3.38"/><path class="cls-2" d="M17.11,30.89l.12.2c.52.85,1.13,1.78,1.62,2.52l.39.57.5.75s.16-.23.45-.68l.43-.64L22.32,31c-1.75,0-3.49-.06-5.21-.11"/><path class="cls-2" d="M26.51,34.44A98.39,98.39,0,0,0,43.7,33a17.83,17.83,0,0,0,.47-2.44c-4.83.29-10.08.46-15.38.5-.62.95-1.36,2.06-2.28,3.42"/><path class="cls-2" d="M11.92,30.69q-1.65-.07-3.24-.18A18,18,0,0,0,9.15,33q2.12.38,4.32.66c-.66-1.09-1.13-2.08-1.55-2.93"/><path class="cls-2" d="M16.34,37.85c-.9-1.17-1.38-1.87-2.25-3.22-1.58-.19-3.13-.42-4.64-.69a17.62,17.62,0,0,0,1.19,2.78A56.94,56.94,0,0,0,16.42,38l-.08-.1"/><path class="cls-2" d="M17.21,39a57,57,0,0,1-5.9-1.17,17.66,17.66,0,0,0,3,3.6,43.45,43.45,0,0,0,5.77,1.2C18.91,41.27,18,40.09,17.21,39"/><path class="cls-2" d="M16.08,42.84a18,18,0,0,0,20.69,0A46.05,46.05,0,0,1,26.43,44a46.07,46.07,0,0,1-10.35-1.17"/><path class="cls-3" d="M72.2,33.61a6.5,6.5,0,0,0,6.58,6.71c2.9,0,4.78-1.76,6.11-4.15l2.9,1.67a10.13,10.13,0,0,1-9.27,5.64c-6,0-9.82-4.57-9.82-10.34,0-5.94,3.46-10.85,9.74-10.85,6.45,0,9.87,5.34,9.52,11.32ZM84.38,30.7a6.13,6.13,0,0,0-5.9-5.25,6.35,6.35,0,0,0-6.11,5.25Z"/><path class="cls-3" d="M94,25H94c1.2-1.58,2.22-2.73,4.45-2.73a6,6,0,0,1,3.07.94l-1.62,3.12a3.34,3.34,0,0,0-2-.9c-3.76,0-3.93,4.83-3.93,7.43v10H90.54V22.84H94Z"/><path class="cls-3" d="M107.42,16.18a2.44,2.44,0,0,1-4.87,0,2.44,2.44,0,1,1,4.87,0m-.73,26.74h-3.42V22.84h3.42Z"/><path class="cls-3" d="M118.54,27.5a3.21,3.21,0,0,0-2.73-2.05,2.43,2.43,0,0,0-2.48,2.22c0,1.84,2.3,2.52,4.65,3.5s4.66,2.4,4.66,5.77a6.57,6.57,0,0,1-6.79,6.54,7.21,7.21,0,0,1-7.09-5.09l3-1.28c.85,1.88,1.84,3.21,4.1,3.21a3.06,3.06,0,0,0,3.25-3.08c0-4.49-9.06-3-9.06-9.27a5.71,5.71,0,0,1,6-5.68A6.06,6.06,0,0,1,121.4,26Z"/><polygon class="cls-3" points="140.13 22.84 135.56 22.84 128.25 30.28 128.25 13.74 124.84 13.74 124.84 42.92 128.25 42.92 128.25 34.68 129.15 33.78 137.22 42.92 141.75 42.92 131.54 31.39 140.13 22.84"/><polygon class="cls-3" points="68.81 13.74 61.16 34.21 53.51 13.74 49.64 13.74 61.05 43.52 61.16 43.81 72.68 13.74 68.81 13.74"/></svg>