<?xml version="1.0" encoding="UTF-8"?>
<svg xmlns="http://www.w3.org/2000/svg" xmlns:xlink="http://www.w3.org/1999/xlink" width="544.396pt" height="183.396pt" viewBox="0 0 544.396 183.396" version="1.1">
<g id="surface1">
<path style=" stroke:none;fill-rule:nonzero;fill:rgb(79.608154%,21.568298%,14.509583%);fill-opacity:1;" d="M 193.324219 83.074219 C 192.574219 86.449219 191.726563 87.9375 189.773438 89.730469 C 187.347656 91.898438 183.921875 93.246094 180.839844 93.246094 C 177.785156 93.246094 174.996094 92.171875 173.191406 90.304688 C 171.992188 89.050781 171.0625 87.066406 170.820313 85.230469 C 170.609375 83.847656 170.347656 81.308594 170.265625 77.101563 C 170.265625 76.742188 170.246094 76.390625 170.226563 76.042969 C 170.210938 75.773438 170.195313 75.511719 170.195313 75.261719 C 170.195313 68.0625 171.109375 64.351563 173.445313 62.011719 C 175.0625 60.398438 177.566406 59.398438 179.988281 59.398438 C 184.070313 59.398438 187.914063 61.261719 190.554688 64.535156 C 191.851563 66.070313 192.4375 67.421875 193.320313 70.339844 L 201.855469 70.339844 L 201.855469 51.730469 L 195.1875 51.730469 L 193.179688 55.738281 C 192.09375 54.691406 191.007813 53.996094 189.453125 53.246094 C 186.710938 51.796875 183.523438 51.09375 179.703125 51.09375 C 166.503906 51.09375 156.921875 61.792969 156.921875 76.535156 C 156.921875 91.097656 166.261719 101.273438 179.632813 101.273438 C 183.367188 101.273438 186.375 100.691406 189.078125 99.449219 C 190.707031 98.730469 191.855469 98.054688 193.179688 96.9375 L 195.3125 101.199219 L 202.347656 101.199219 L 202.347656 83.074219 Z M 193.324219 83.074219 "/>
<path style=" stroke:none;fill-rule:nonzero;fill:rgb(79.608154%,21.568298%,14.509583%);fill-opacity:1;" d="M 418.792969 100.492188 L 392.953125 100.492188 L 392.953125 92.328125 L 399.585938 92.328125 L 399.585938 59.828125 L 392.878906 59.828125 L 392.878906 51.730469 L 418.722656 51.730469 L 418.722656 59.828125 L 412.085938 59.828125 L 412.085938 92.328125 L 418.792969 92.328125 Z M 418.792969 100.492188 "/>
<path style=" stroke:none;fill-rule:nonzero;fill:rgb(79.608154%,21.568298%,14.509583%);fill-opacity:1;" d="M 146.804688 100.492188 L 120.964844 100.492188 L 120.964844 92.328125 L 127.597656 92.328125 L 127.597656 59.828125 L 120.890625 59.828125 L 120.890625 51.730469 L 146.734375 51.730469 L 146.734375 59.828125 L 140.097656 59.828125 L 140.097656 92.328125 L 146.804688 92.328125 Z M 146.804688 100.492188 "/>
<path style=" stroke:none;fill-rule:nonzero;fill:rgb(79.608154%,21.568298%,14.509583%);fill-opacity:1;" d="M 285.589844 62.714844 C 283.234375 65.132813 282.402344 68.324219 282.402344 74.90625 C 282.402344 84.644531 283.101563 86.8125 285.511719 89.222656 C 287.9375 91.644531 291.191406 92.820313 295.449219 92.820313 C 300.578125 92.820313 304.96875 90.3125 306.636719 86.425781 C 307.464844 84.445313 307.789063 81.667969 307.789063 76.535156 C 307.789063 70.445313 307.519531 67.949219 306.632813 65.863281 C 305.566406 63.289063 303.527344 61.257813 300.890625 60.128906 C 299.339844 59.511719 297.269531 59.117188 295.519531 59.117188 L 295.234375 59.117188 C 291.054688 59.3125 287.789063 60.519531 285.589844 62.714844 M 294.957031 101.554688 C 280.152344 101.554688 268.558594 90.628906 268.558594 76.675781 C 268.558594 61.566406 279.632813 50.597656 294.886719 50.597656 C 302.601563 50.597656 309.230469 53.144531 314.050781 57.960938 L 314.0625 57.964844 C 318.667969 62.644531 321.425781 69.324219 321.425781 75.828125 C 321.425781 90.253906 309.792969 101.554688 294.957031 101.554688 "/>
<path style=" stroke:none;fill-rule:nonzero;fill:rgb(79.608154%,21.568298%,14.509583%);fill-opacity:1;" d="M 348.367188 72.097656 L 353.484375 72.097656 C 360.667969 72.097656 362.476563 71.546875 363.972656 70.003906 C 364.988281 68.984375 365.472656 67.660156 365.472656 65.925781 C 365.472656 62.375 362.554688 59.898438 358.371094 59.898438 L 348.367188 59.898438 Z M 375.367188 100.917969 C 372.121094 100.917969 370.191406 100.230469 368.265625 98.386719 C 366.117188 96.246094 365.339844 93.761719 365.261719 88.863281 C 365.1875 84.105469 364.433594 82.789063 362.773438 81.628906 C 361.535156 80.6875 360.105469 80.265625 358.226563 80.265625 L 348.367188 80.265625 L 348.367188 92.328125 L 354.933594 92.328125 L 354.933594 100.492188 L 329.730469 100.492188 L 329.730469 92.328125 L 335.871094 92.328125 L 335.871094 59.753906 L 329.515625 59.753906 L 329.515625 51.730469 L 362.195313 51.730469 C 371.390625 51.730469 378.324219 57.558594 378.324219 65.289063 C 378.324219 68.527344 376.863281 71.453125 374.21875 73.519531 C 372.710938 74.640625 371.402344 75.398438 369.625 76.078125 C 372.097656 76.777344 373.59375 77.640625 374.917969 78.964844 C 377.089844 80.957031 377.539063 82.820313 377.757813 86.492188 C 377.789063 86.996094 377.808594 87.347656 377.824219 87.679688 C 377.84375 88.035156 377.859375 88.371094 377.894531 88.878906 C 378.226563 91.761719 378.660156 92.15625 381.753906 92.328125 L 383.140625 92.40625 L 383.140625 100.390625 L 381.25 100.527344 C 380.652344 100.566406 380.378906 100.582031 379.90625 100.679688 L 379.742188 100.703125 C 378.03125 100.847656 376.644531 100.917969 375.367188 100.917969 "/>
<path style=" stroke:none;fill-rule:nonzero;fill:rgb(79.608154%,21.568298%,14.509583%);fill-opacity:1;" d="M 93.53125 51.730469 L 93.53125 59.753906 L 98.253906 59.753906 L 88.941406 83.855469 L 79.695313 59.753906 L 85.339844 59.753906 L 85.339844 51.730469 L 61.480469 51.730469 L 61.480469 59.753906 L 66.691406 59.753906 L 81.652344 100.492188 L 92.898438 100.492188 L 107.789063 59.753906 L 112.714844 59.753906 L 112.714844 51.730469 Z M 93.53125 51.730469 "/>
<path style=" stroke:none;fill-rule:nonzero;fill:rgb(79.608154%,21.568298%,14.509583%);fill-opacity:1;" d="M 448.464844 51.230469 L 433.007813 92.324219 L 427.789063 92.324219 L 427.789063 100.492188 L 449.59375 100.492188 L 449.59375 92.324219 L 443.207031 92.324219 L 445.253906 85.851563 L 462.359375 85.851563 L 464.550781 92.324219 L 457.925781 92.324219 L 457.925781 100.492188 L 482.917969 100.492188 L 482.917969 92.324219 L 477.746094 92.324219 L 461.222656 51.230469 Z M 453.414063 63.3125 L 459.582031 77.683594 L 447.789063 77.683594 Z M 453.414063 63.3125 "/>
<path style=" stroke:none;fill-rule:nonzero;fill:rgb(79.608154%,21.568298%,14.509583%);fill-opacity:1;" d="M 247.195313 59.898438 C 250.589844 59.898438 254.5 61.054688 254.582031 70.113281 L 254.582031 70.34375 L 263.039063 70.34375 L 263.039063 51.730469 L 211.664063 51.730469 L 211.664063 70.34375 L 220.117188 70.34375 L 220.125 70.128906 C 220.191406 66.808594 220.390625 65.402344 221.011719 63.851563 C 222.320313 60.582031 225.613281 59.898438 228.148438 59.898438 L 231.140625 59.898438 L 231.140625 92.324219 L 224.21875 92.324219 L 224.21875 100.492188 L 250.699219 100.492188 L 250.699219 92.324219 L 243.636719 92.324219 L 243.636719 59.898438 Z M 247.195313 59.898438 "/>
<path style=" stroke:none;fill-rule:nonzero;fill:rgb(79.608154%,21.568298%,14.509583%);fill-opacity:1;" d="M 201.296875 118.683594 L 198.175781 127.4375 L 198.132813 127.4375 L 195.035156 118.683594 L 188.078125 118.683594 L 188.078125 120.226563 L 190.386719 120.226563 L 190.386719 130.960938 L 188.121094 130.960938 L 188.121094 132.546875 L 194.710938 132.546875 L 194.710938 130.960938 L 192.445313 130.960938 L 192.445313 120.269531 L 192.636719 120.269531 L 197.128906 132.546875 L 198.410156 132.546875 L 202.863281 120.269531 L 203.160156 120.269531 L 203.160156 130.960938 L 200.808594 130.960938 L 200.808594 132.546875 L 208.210938 132.546875 L 208.210938 130.960938 L 205.835938 130.960938 L 205.835938 120.226563 L 208.210938 120.226563 L 208.210938 118.683594 Z M 201.296875 118.683594 "/>
<path style=" stroke:none;fill-rule:nonzero;fill:rgb(79.608154%,21.568298%,14.509583%);fill-opacity:1;" d="M 218.171875 114.496094 L 216.714844 117.617188 L 218.582031 117.617188 L 221.46875 114.496094 Z M 216.714844 118.53125 L 212.417969 130.960938 L 210.601563 130.960938 L 210.601563 132.546875 L 217.035156 132.546875 L 217.035156 130.960938 L 214.578125 130.960938 L 215.476563 128.117188 L 220.550781 128.117188 L 221.511719 130.960938 L 218.964844 130.960938 L 218.964844 132.546875 L 226.367188 132.546875 L 226.367188 130.960938 L 224.570313 130.960938 L 219.949219 118.53125 Z M 217.847656 120.375 L 217.890625 120.375 L 220.011719 126.539063 L 215.972656 126.539063 Z M 217.847656 120.375 "/>
<path style=" stroke:none;fill-rule:nonzero;fill:rgb(79.608154%,21.568298%,14.509583%);fill-opacity:1;" d="M 236.625 118.683594 L 236.625 120.226563 L 234.097656 120.226563 L 234.097656 130.960938 L 236.601563 130.960938 C 238.101563 130.960938 239.105469 130.382813 239.6875 129.207031 C 239.9375 128.671875 240.070313 128.097656 240.15625 127.085938 L 241.675781 127.085938 L 241.675781 132.546875 L 228.796875 132.546875 L 228.796875 130.960938 L 231.210938 130.960938 L 231.210938 120.226563 L 228.796875 120.226563 L 228.796875 118.683594 Z M 236.625 118.683594 "/>
<path style=" stroke:none;fill-rule:nonzero;fill:rgb(79.608154%,21.568298%,14.509583%);fill-opacity:1;" d="M 250.316406 118.535156 L 246.015625 130.960938 L 244.203125 130.960938 L 244.203125 132.546875 L 250.636719 132.546875 L 250.636719 130.960938 L 248.179688 130.960938 L 249.078125 128.117188 L 254.152344 128.117188 L 255.109375 130.960938 L 252.566406 130.960938 L 252.566406 132.546875 L 259.96875 132.546875 L 259.96875 130.960938 L 258.171875 130.960938 L 253.550781 118.535156 Z M 251.449219 120.375 L 251.492188 120.375 L 253.613281 126.539063 L 249.574219 126.539063 Z M 251.449219 120.375 "/>
<path style=" stroke:none;fill-rule:nonzero;fill:rgb(79.608154%,21.568298%,14.509583%);fill-opacity:1;" d="M 273.558594 118.621094 L 274.902344 118.621094 L 274.902344 123.214844 L 273.429688 123.214844 C 272.976563 122.316406 272.746094 121.976563 272.277344 121.507813 C 271.308594 120.566406 270.089844 120.078125 268.761719 120.078125 C 267.734375 120.078125 266.820313 120.441406 266.175781 121.125 C 265.363281 121.960938 265.128906 122.945313 265.128906 125.597656 C 265.128906 125.71875 265.128906 125.875 265.152344 126 L 265.152344 126.816406 C 265.152344 129.679688 266.433594 131.195313 268.851563 131.195313 C 271.140625 131.195313 272.59375 129.980469 272.59375 128.054688 L 272.59375 127.347656 L 270.046875 127.347656 L 270.046875 125.832031 L 277.578125 125.832031 L 277.578125 127.347656 L 275.460938 127.347656 L 275.460938 132.441406 L 273.984375 132.441406 L 273.367188 130.664063 C 272.703125 131.5 272.382813 131.777344 271.632813 132.136719 C 270.796875 132.5625 269.855469 132.78125 268.761719 132.78125 C 264.746094 132.78125 261.960938 129.9375 261.960938 125.808594 C 261.960938 123.878906 262.816406 121.765625 264.183594 120.355469 C 265.46875 119.027344 266.90625 118.472656 269.042969 118.472656 C 269.964844 118.472656 270.839844 118.640625 271.605469 119.003906 C 272.277344 119.308594 272.53125 119.519531 273.105469 120.121094 Z M 273.558594 118.621094 "/>
<path style=" stroke:none;fill-rule:nonzero;fill:rgb(79.608154%,21.568298%,14.509583%);fill-opacity:1;" d="M 286.191406 118.535156 L 281.890625 130.960938 L 280.070313 130.960938 L 280.070313 132.546875 L 286.511719 132.546875 L 286.511719 130.960938 L 284.050781 130.960938 L 284.953125 128.117188 L 290.019531 128.117188 L 290.976563 130.960938 L 288.4375 130.960938 L 288.4375 132.546875 L 295.835938 132.546875 L 295.835938 130.960938 L 294.039063 130.960938 L 289.417969 118.535156 Z M 287.324219 120.375 L 287.367188 120.375 L 289.484375 126.539063 L 285.441406 126.539063 Z M 287.324219 120.375 "/>
<path style=" stroke:none;fill-rule:nonzero;fill:rgb(79.608154%,21.568298%,14.509583%);fill-opacity:1;" d="M 312.203125 118.75 L 312.203125 131.003906 L 314.363281 131.003906 L 314.363281 132.546875 L 307.222656 132.546875 L 307.222656 131.003906 L 309.574219 131.003906 L 309.574219 120.652344 L 309.53125 120.652344 C 308.886719 121.742188 308.589844 122.167969 308.03125 122.855469 C 307.582031 123.433594 307.28125 123.753906 306.535156 124.503906 L 305.269531 124.351563 C 306.234375 123.347656 306.601563 122.917969 307.109375 122.257813 C 307.34375 121.960938 307.5625 121.636719 307.773438 121.339844 C 308.3125 120.503906 308.546875 120.007813 309.078125 118.75 Z M 312.203125 118.75 "/>
<path style=" stroke:none;fill-rule:nonzero;fill:rgb(79.608154%,21.568298%,14.509583%);fill-opacity:1;" d="M 321.808594 128.953125 L 321.808594 129.273438 C 321.808594 130.664063 322.453125 131.371094 323.753906 131.371094 C 324.632813 131.371094 325.507813 130.765625 325.855469 129.9375 C 326.171875 129.164063 326.238281 128.5 326.238281 126.109375 C 325.105469 126.921875 324.269531 127.199219 323.003906 127.199219 C 320.460938 127.199219 318.707031 125.527344 318.707031 123.109375 C 318.707031 120.503906 320.867188 118.515625 323.710938 118.515625 C 326.902344 118.515625 328.976563 121.226563 328.976563 125.402344 C 328.976563 129.808594 326.710938 132.761719 323.308594 132.761719 C 321.46875 132.761719 320.121094 131.96875 319.480469 130.53125 C 319.285156 130.042969 319.203125 129.722656 319.160156 128.953125 Z M 322.089844 120.503906 C 321.636719 120.972656 321.445313 121.65625 321.445313 122.855469 C 321.445313 124.863281 322.175781 125.832031 323.691406 125.832031 C 325.316406 125.832031 326.257813 124.757813 326.257813 122.902344 C 326.257813 120.949219 325.359375 119.816406 323.839844 119.816406 C 323.136719 119.816406 322.515625 120.050781 322.089844 120.503906 "/>
<path style=" stroke:none;fill-rule:nonzero;fill:rgb(79.608154%,21.568298%,14.509583%);fill-opacity:1;" d="M 340.546875 130.324219 L 340.546875 128.335938 L 342.066406 128.335938 L 342.066406 132.546875 L 331.652344 132.546875 L 331.652344 130.855469 L 336.589844 126.6875 C 338.5 125.054688 339.117188 124.117188 339.117188 122.746094 C 339.117188 121.015625 338.21875 120.007813 336.738281 120.007813 C 335.308594 120.007813 334.28125 120.886719 334.28125 122.082031 C 334.28125 122.511719 334.367188 123.050781 334.539063 123.667969 L 331.671875 123.667969 C 331.695313 122.40625 331.757813 121.917969 332.054688 121.210938 C 332.273438 120.714844 332.570313 120.289063 332.953125 119.882813 C 333.894531 118.984375 335.097656 118.558594 336.824219 118.558594 C 339.886719 118.558594 342.066406 120.242188 342.066406 122.621094 C 342.066406 123.519531 341.707031 124.460938 341.125 125.082031 C 340.589844 125.65625 339.867188 126.257813 338.988281 126.894531 L 334.261719 130.28125 L 334.261719 130.324219 Z M 340.546875 130.324219 "/>
<path style=" stroke:none;fill-rule:nonzero;fill:rgb(79.608154%,21.568298%,14.509583%);fill-opacity:1;" d="M 345.855469 124.65625 C 345.34375 124.078125 345.085938 123.304688 345.085938 122.363281 C 345.085938 120.207031 347.226563 118.535156 350.027344 118.535156 C 352.765625 118.535156 354.777344 120.035156 354.777344 122.0625 C 354.777344 122.789063 354.515625 123.390625 354.003906 123.863281 C 353.578125 124.246094 353.234375 124.417969 352.320313 124.757813 C 353.367188 125.210938 353.75 125.449219 354.28125 125.957031 C 355.011719 126.660156 355.375 127.496094 355.375 128.5 C 355.375 131.027344 353.214844 132.800781 350.113281 132.800781 C 346.949219 132.800781 344.808594 131.21875 344.808594 128.890625 C 344.808594 127.601563 345.578125 126.773438 347.546875 125.875 C 346.582031 125.335938 346.285156 125.125 345.855469 124.65625 M 346.90625 129.015625 C 346.90625 130.601563 347.976563 131.429688 349.964844 131.429688 C 351.867188 131.429688 353.0625 130.601563 353.0625 129.273438 C 353.0625 128.480469 352.675781 127.90625 351.910156 127.496094 C 351.160156 127.113281 350.792969 126.980469 348.832031 126.40625 C 347.4375 127.050781 346.90625 127.777344 346.90625 129.015625 M 352.914063 121.890625 C 352.914063 120.5625 351.738281 119.648438 350.050781 119.648438 C 348.421875 119.648438 347.3125 120.476563 347.3125 121.65625 C 347.3125 122.386719 347.714844 122.964844 348.484375 123.371094 C 349.144531 123.710938 349.582031 123.863281 350.949219 124.246094 C 352.441406 123.6875 352.914063 123.136719 352.914063 121.890625 "/>
</g>
</svg>
